# xmcd
#
# Track frame offsets:
#	150
#	17245
#	34514
#	50358
#	64300
#	87138
#	108662
#	123721
#	145395
#	161285
#	173693
#	196138
#	210021
#	229071
#	244111
#	262103
#	276649
#	290668
#	304072
#
# Disc length: 4217 seconds
#
# Revision: 1
# Processed by: cddbd v1.5.1PL2 Copyright (c) Steve Scherf et al.
# Submitted via: audiograbber 1.83.01
#
DISCID=15107713
DTITLE=Sampler - Letter From Memphis
DYEAR=1998
DGENRE=
TTITLE0=Donnie Fritts - Hello Memphis
TTITLE1=Don Nix - Goin Down The Road To Memphis
TTITLE2=Bill Wharton - Havana
TTITLE3=Mark Hodgson - Big Foot Woman
TTITLE4=Dr Hector and the Groove Injectors  - Doin All The Wrong Things Right
TTITLE5=Ace Moreland - No No Henrietta
TTITLE6=Bruce Channel - Hootchie Chile
TTITLE7=Microwave Dave - Road Runner
TTITLE8=Lee Baker - You Can't Catch Me
TTITLE9=Don McMinn - Where's The Love
TTITLE10=Gary B.B. Coleman - That's Enough
TTITLE11=Tony Sarno - Money On The Side
TTITLE12=Sonny Landreth - Creole Angel
TTITLE13=Cold Blue Steel - Shufflin Little Lady
TTITLE14=The Bluebirds - Run For The Levee
TTITLE15=The Radio Kings - Love Comes Easy (Love Comes Hard)
TTITLE16=Mark May - Short and Stout
TTITLE17=Chicago Bob Nelson - It's A Shame
TTITLE18=Smokehouse - Mr. So And So
EXTD=
EXTT0=
EXTT1=
EXTT2=
EXTT3=
EXTT4=
EXTT5=
EXTT6=
EXTT7=
EXTT8=
EXTT9=
EXTT10=
EXTT11=
EXTT12=
EXTT13=
EXTT14=
EXTT15=
EXTT16=
EXTT17=
EXTT18=
PLAYORDER=
